<svg xmlns="http://www.w3.org/2000/svg" width="32" height="32" viewBox="0 0 32 32" fill="none">
  <g clip-path="url(#clip0_526_69)">
    <path d="M31.2523 16.2994C31.2523 14.9883 31.1459 14.0316 30.9157 13.0395H15.9451V18.9568H24.7325C24.5554 20.4274 23.5987 22.642 21.4726 24.1301L21.4428 24.3282L26.1763 27.9951L26.5042 28.0279C29.516 25.2463 31.2523 21.1537 31.2523 16.2994Z" fill="#4285F4"/>
    <path d="M15.945 31.8901C20.2501 31.8901 23.8643 30.4727 26.5042 28.0279L21.4726 24.1301C20.1262 25.0691 18.319 25.7246 15.945 25.7246C11.7285 25.7246 8.14972 22.9432 6.874 19.0986L6.687 19.1145L1.76511 22.9236L1.70074 23.1025C4.32279 28.3112 9.70868 31.8901 15.945 31.8901Z" fill="#34A853"/>
    <path d="M6.87401 19.0986C6.5374 18.1065 6.3426 17.0434 6.3426 15.945C6.3426 14.8465 6.5374 13.7836 6.85631 12.7915L6.84739 12.5802L1.86382 8.70987L1.70076 8.78743C0.620092 10.9489 0 13.3761 0 15.945C0 18.514 0.620092 20.9411 1.70076 23.1025L6.87401 19.0986Z" fill="#FBBC05"/>
    <path d="M15.945 6.16537C18.9391 6.16537 20.9588 7.45869 22.1104 8.53948L26.6104 4.14571C23.8467 1.57679 20.2501 0 15.945 0C9.70868 0 4.32279 3.57875 1.70074 8.78742L6.85629 12.7915C8.14972 8.94693 11.7285 6.16537 15.945 6.16537Z" fill="#EB4335"/>
  </g>
  <defs>
    <clipPath id="clip0_526_69">
      <rect width="32" height="32" fill="white"/>
    </clipPath>
  </defs>
</svg>